<?xml version="1.0" encoding="UTF-8" standalone="no"?>
<!-- Created with Inkscape (http://www.inkscape.org/) -->

<svg
   xmlns:dc="http://purl.org/dc/elements/1.1/"
   xmlns:cc="http://creativecommons.org/ns#"
   xmlns:rdf="http://www.w3.org/1999/02/22-rdf-syntax-ns#"
   xmlns:svg="http://www.w3.org/2000/svg"
   xmlns="http://www.w3.org/2000/svg"
   xmlns:sodipodi="http://sodipodi.sourceforge.net/DTD/sodipodi-0.dtd"
   xmlns:inkscape="http://www.inkscape.org/namespaces/inkscape"
   width="167.37901"
   height="159.31729"
   viewBox="0 0 167.37901 159.31729"
   id="svg2"
   version="1.1"
   inkscape:version="0.91 r13725"
   sodipodi:docname="sondra.svg">
  <defs
     id="defs4" />
  <sodipodi:namedview
     id="base"
     pagecolor="#ffffff"
     bordercolor="#666666"
     borderopacity="1.0"
     inkscape:pageopacity="0.0"
     inkscape:pageshadow="2"
     inkscape:zoom="1.4"
     inkscape:cx="60.10535"
     inkscape:cy="47.323014"
     inkscape:document-units="px"
     inkscape:current-layer="layer1"
     showgrid="false"
     inkscape:window-width="1680"
     inkscape:window-height="1001"
     inkscape:window-x="0"
     inkscape:window-y="1"
     inkscape:window-maximized="1"
     units="px"
     fit-margin-top="10"
     fit-margin-left="10"
     fit-margin-right="10"
     fit-margin-bottom="10" />
  <metadata
     id="metadata7">
    <rdf:RDF>
      <cc:Work
         rdf:about="">
        <dc:format>image/svg+xml</dc:format>
        <dc:type
           rdf:resource="http://purl.org/dc/dcmitype/StillImage" />
        <dc:title></dc:title>
      </cc:Work>
    </rdf:RDF>
  </metadata>
  <g
     inkscape:label="Layer 1"
     inkscape:groupmode="layer"
     id="layer1"
     transform="translate(-2.3946493,-3.3338081)">
    <g
       style="font-style:normal;font-variant:normal;font-weight:normal;font-stretch:normal;font-size:80px;line-height:125%;font-family:'Nanum Brush Script';-inkscape-font-specification:'Nanum Brush Script';letter-spacing:0px;word-spacing:0px;fill:#a05a2c;fill-opacity:1;stroke:none;stroke-width:1px;stroke-linecap:butt;stroke-linejoin:miter;stroke-opacity:1"
       id="text4136"
       transform="matrix(3.0972614,1.2350338,-2.189111,3.147672,472.95933,-1284.5847)"
       inkscape:transform-center-x="10.714286"
       inkscape:transform-center-y="-7.1428572">
      <path
         d="m 152.62236,363.51438 q -0.16,0.32 0,0.48 0.16,0.16 0,0.32 -0.24,0.16 -0.88,0.24 -0.56,0 -0.96,0.08 -0.56,0.16 -1.12,0.16 -0.56,-0.08 -1.2,-0.48 -0.96,-0.48 -2.4,-0.88 -1.36,-0.48 -2.96,-0.48 -2.08,0 -4.4,0.48 -2.32,0.4 -4.48,1.2 -2.08,0.72 -3.76,1.84 -1.6,1.12 -2.32,2.48 -0.48,1.04 -0.4,2.24 0.08,1.12 0.56,2.16 0.48,1.04 1.12,1.92 0.72,0.8 1.36,1.12 2,1.04 4.4,1.36 2.48,0.32 5.04,0.4 2.64,0.08 5.2,0.24 2.56,0.16 4.72,0.8 1.12,0.4 2.08,0.64 1.04,0.24 1.84,0.72 0.8,0.4 1.44,1.2 0.72,0.72 1.2,2.16 0.72,3.04 -0.32,5.92 -1.04,2.96 -3.44,5.28 -2.4,2.24 -5.44,3.6 -2.4,1.04 -4.96,1.44 -2.48,0.32 -4.88,-0.16 -2.32,-0.48 -4.32,-1.84 -1.92,-1.36 -3.12,-3.76 -0.72,-1.52 -0.72,-3.68 -0.08,-0.24 0,-0.48 0.16,-0.56 1.04,-0.56 0.32,-0.16 0.8,0.24 0.56,0.32 0.8,0.4 0.64,0.08 1.2,0.88 0.64,0.72 1.2,1.2 2,2.08 4.48,2.56 2.56,0.4 4.88,0 2.4,-0.48 4.4,-1.44 2,-0.96 2.96,-1.76 0.56,-0.48 1.2,-1.12 0.72,-0.72 1.36,-1.52 0.64,-0.88 1.04,-1.84 0.48,-0.96 0.48,-2 -0.24,-0.96 -1.28,-1.44 -1.04,-0.56 -2.64,-0.88 -2.8,-0.48 -5.52,-0.48 -2.72,-0.08 -5.36,0 -2.64,0.08 -5.2,0.08 -2.56,0 -4.96,-0.56 -0.72,-0.16 -1.44,-0.48 -0.64,-0.4 -1.28,-0.8 -0.64,-0.4 -0.96,-1.04 -0.32,-0.64 -0.72,-1.36 -0.4,-0.72 -0.8,-1.44 -0.32,-0.8 -0.48,-1.68 -0.4,-2.56 0,-5.28 0.48,-2.72 2.08,-5.04 1.28,-1.92 3.44,-3.28 2.24,-1.44 4.96,-2.16 2.8,-0.8 5.92,-0.72 3.12,0 6.4,0.96 0.4,0.16 0.96,0.48 0.56,0.24 0.96,0.4 1.12,0.56 2,1.36 0.88,0.8 1.2,1.6 z"
         id="path4161"
         inkscape:connector-curvature="0"
         style="fill:#a05a2c" />
    </g>
    <g
       style="font-style:normal;font-variant:normal;font-weight:normal;font-stretch:normal;font-size:80px;line-height:125%;font-family:'Nanum Brush Script';-inkscape-font-specification:'Nanum Brush Script';letter-spacing:0px;word-spacing:0px;fill:#000000;fill-opacity:1;stroke:none;stroke-width:1px;stroke-linecap:butt;stroke-linejoin:miter;stroke-opacity:1"
       id="text4140"
       transform="translate(-77.857143,-316.42858)">
      <path
         d="m 190.34285,373.49933 -1.36,1.36 q 0.64,-0.08 1.92,-0.32 1.36,-0.32 2.64,-0.32 0.96,0.16 1.6,0.64 0.64,0.48 0.8,1.84 0.32,1.92 0.96,3.92 0.72,1.92 1.04,3.84 0.4,1.92 0,3.68 -0.4,1.68 -2.16,3.04 -1.84,2.8 -4.08,4.72 -2.16,1.84 -4.56,2.16 -1.6,0.24 -3.52,-0.4 -1.92,-0.72 -2.8,-2.4 -0.24,0.16 -0.4,0.08 -0.16,-0.16 -0.32,-0.32 -0.16,-0.16 -0.32,-0.08 -0.08,0.08 -0.16,-0.08 -0.08,-0.24 -0.08,-0.64 l 0,-0.16 0,-0.16 q 0.08,-2.8 0.48,-5.6 0.48,-2.88 1.36,-5.52 0.96,-2.72 2.4,-5.04 1.52,-2.4 3.84,-4.24 0.8,-0.48 1.76,-0.32 0.16,0 0.4,0 0.24,0 0.56,0.32 z m -2.72,5.44 q -0.48,-0.08 -0.56,-0.32 -0.08,-0.24 0,-0.56 0.16,-0.4 0.32,-0.88 0.24,-0.48 0.24,-0.96 -1.68,1.52 -2.64,3.68 -0.88,2.16 -1.28,4.48 -0.4,2.24 -0.4,4.4 0.08,2.16 0.24,3.76 0.16,1.36 0.56,2.24 0.4,0.8 1.2,0.96 0.88,0.24 2.32,-0.48 2.08,-1.04 3.36,-2.88 1.28,-1.84 2.08,-3.92 0.32,-1.12 0.48,-2.64 0.24,-1.6 -0.08,-2.96 -0.4,-1.84 -2.08,-2.64 -1.6,-0.88 -3.76,-1.28 z"
         id="path4199"
         inkscape:connector-curvature="0" />
    </g>
    <g
       style="font-style:normal;font-variant:normal;font-weight:normal;font-stretch:normal;font-size:80px;line-height:125%;font-family:'Nanum Brush Script';-inkscape-font-specification:'Nanum Brush Script';letter-spacing:0px;word-spacing:0px;fill:#000000;fill-opacity:1;stroke:none;stroke-width:1px;stroke-linecap:butt;stroke-linejoin:miter;stroke-opacity:1"
       id="text4144"
       transform="translate(-77.857143,-316.42858)">
      <path
         d="m 198.50826,387.84733 q 1.36,-1.36 2.72,-2.88 1.44,-1.6 2.96,-3.04 1.52,-1.44 3.12,-2.56 1.6,-1.2 3.36,-1.92 0.4,-0.16 0.72,-0.08 0.4,0.08 0.8,-0.08 0.64,0 1.12,0 0.48,0 0.88,0.32 1.12,0.72 1.76,2.08 0.72,1.28 1.2,2.88 0.32,0.88 0.32,1.68 0.08,0.8 0.48,1.84 0.48,1.52 1.04,3.12 0.64,1.52 0.48,2.96 -0.08,0.4 -0.24,0.72 -0.16,0.24 -0.4,0.64 -0.16,0.32 -0.56,0.8 -0.4,0.48 -0.8,0.72 -0.4,0.32 -0.56,0.56 -0.08,0.16 -0.72,0.4 -1.04,-1.52 -1.6,-3.28 -0.56,-1.76 -0.96,-3.68 -0.4,-1.92 -0.72,-3.92 -0.32,-2 -0.8,-4.08 -0.16,-0.56 -1.04,-0.64 -0.8,-0.08 -1.92,0.56 -1.04,0.56 -2.24,1.84 -1.2,1.28 -2.16,3.28 -0.64,1.44 -1.2,3.04 -0.56,1.52 -1.28,3.12 -0.64,1.52 -1.6,3.04 -0.88,1.44 -2.16,2.64 -0.4,0.4 -0.56,0.08 -0.16,-0.32 -0.8,-0.56 -0.48,-0.16 -0.56,-0.32 0,-0.16 -0.24,-0.96 -0.48,-1.68 -1.04,-3.84 -0.48,-2.16 -1.12,-4.56 -0.56,-2.4 -1.2,-4.8 -0.64,-2.48 -1.28,-4.64 l -0.48,-1.44 q 0.16,-0.32 0.56,-0.56 0.48,-0.24 0.96,-0.4 0.48,-0.16 1.04,0.08 0.56,0.24 0.88,0.24 0.88,0 1.52,1.12 0.72,1.12 1.2,2.88 0.48,1.68 0.72,3.76 0.32,2 0.4,3.84 z"
         id="path4196"
         inkscape:connector-curvature="0" />
    </g>
    <g
       style="font-style:normal;font-variant:normal;font-weight:normal;font-stretch:normal;font-size:80px;line-height:125%;font-family:'Nanum Brush Script';-inkscape-font-specification:'Nanum Brush Script';letter-spacing:0px;word-spacing:0px;fill:#000000;fill-opacity:1;stroke:none;stroke-width:1px;stroke-linecap:butt;stroke-linejoin:miter;stroke-opacity:1"
       id="text4148"
       transform="translate(-77.857143,-316.42858)">
      <path
         d="m 233.5508,355.12324 q 0,5.12 0.96,9.6 0.96,4.4 1.6,9.04 0.64,4.72 0.88,9.36 0.24,4.56 0.64,8.48 -0.24,0.48 -0.24,1.12 0.08,0.64 -0.32,1.04 -1.2,1.12 -2.72,2.16 -1.52,1.04 -3.36,1.92 -0.64,0.32 -1.28,0.32 -0.64,-0.08 -1.28,0.08 -0.72,0.16 -1.52,0.4 -0.72,0.24 -1.52,0.08 -0.88,-0.24 -2.08,-0.72 -1.2,-0.56 -2.4,-1.28 -1.2,-0.72 -2.24,-1.6 -0.96,-0.88 -1.44,-1.92 -0.88,-4.56 0.32,-8.24 1.28,-3.68 3.76,-6.64 0.32,-0.4 0.8,-0.56 0.48,-0.24 0.88,-0.56 0.4,-0.32 0.88,-0.48 0.48,-0.24 1.12,-0.16 1.6,0.16 3.52,0.8 1.92,0.56 2.96,0.72 l 0,-1.2 q 0,-2.08 -0.32,-4.16 -0.24,-2.16 -0.48,-4.32 -0.24,-2.16 -0.4,-4.4 -0.08,-2.32 0.24,-4.72 0.08,-0.64 0.32,-1.28 0.24,-0.64 0.4,-1.28 0.16,-0.4 0.48,-0.88 0.32,-0.56 0.72,-0.72 0.4,-0.16 0.48,-0.48 0.08,-0.4 0.4,-0.32 0.32,0.08 0.24,0.24 0,0.16 0,0.56 z m -0.48,37.28 q 0.08,-0.88 0,-2.48 0,-1.68 -0.48,-3.44 -0.48,-1.76 -1.6,-3.36 -1.04,-1.6 -2.96,-2.4 -0.88,0.08 -2.08,0.32 -1.12,0.16 -2.24,0.64 -1.12,0.48 -2.08,1.36 -0.96,0.8 -1.52,2.08 -0.48,1.44 0,3.76 0.48,2.24 2.56,4.32 1.2,0.72 2.56,0.88 1.36,0.08 2.72,-0.08 1.44,-0.16 2.72,-0.64 1.36,-0.48 2.4,-0.96 z"
         id="path4193"
         inkscape:connector-curvature="0" />
    </g>
    <g
       style="font-style:normal;font-variant:normal;font-weight:normal;font-stretch:normal;font-size:80px;line-height:125%;font-family:'Nanum Brush Script';-inkscape-font-specification:'Nanum Brush Script';letter-spacing:0px;word-spacing:0px;fill:#000000;fill-opacity:1;stroke:none;stroke-width:1px;stroke-linecap:butt;stroke-linejoin:miter;stroke-opacity:1"
       id="text4152"
       transform="translate(-77.857143,-316.42858)">
      <path
         d="m 221.17141,402.92218 q 0,0.72 0.24,1.84 0.24,1.04 -0.16,1.68 -0.16,0.16 -0.16,0.64 0,0.4 -0.24,0.56 l -1.04,-0.64 q -1.28,-0.64 -2.88,-0.56 -1.52,0.08 -3.12,0.72 -1.12,0.48 -2.24,1.36 -1.04,0.8 -2,1.84 -0.96,1.04 -1.76,2.16 -0.8,1.12 -1.36,2.16 -1.28,2.32 -1.28,5.6 0.08,3.28 2.4,8.48 0,0.56 -0.8,1.36 -0.16,0.16 -0.4,0.48 -0.24,0.32 -0.4,0.48 -0.64,0.56 -0.8,0.96 -0.08,0.4 -0.48,0.56 -0.64,0.24 -1.2,-1.12 -1.36,-2.4 -2.64,-5.84 -1.2,-3.52 -2.32,-7.2 -1.04,-3.68 -1.92,-7.04 -0.8,-3.44 -1.28,-5.76 -0.24,-0.64 -0.08,-1.2 0.16,-0.64 0.48,-1.04 0.24,-0.32 0.56,-0.16 0.4,0.16 0.64,0.16 1.04,0 1.28,0.4 0.24,0.4 0.8,1.04 1.12,1.28 1.76,3.44 0.64,2.16 1.6,5.12 1.28,-2.16 3.28,-4.16 2.08,-2 4.48,-3.6 2.4,-1.68 4.96,-2.72 2.56,-1.04 4.96,-1.28 0.48,-0.08 0.8,0.32 0.4,0.32 0.32,0.96 z"
         id="path4190"
         inkscape:connector-curvature="0" />
    </g>
    <g
       transform="matrix(0.99760276,-0.06920073,0.06920073,0.99760276,-77.857143,-316.42858)"
       style="font-style:normal;font-variant:normal;font-weight:normal;font-stretch:normal;font-size:80px;line-height:125%;font-family:'Nanum Brush Script';-inkscape-font-specification:'Nanum Brush Script';letter-spacing:0px;word-spacing:0px;fill:#000000;fill-opacity:1;stroke:none;stroke-width:1px;stroke-linecap:butt;stroke-linejoin:miter;stroke-opacity:1"
       id="text4156">
      <path
         d="m 196.46973,420.2808 q 1.04,2.56 1.92,5.52 0.96,2.96 1.28,5.92 0.4,2.88 0,5.6 -0.32,2.72 -1.84,4.72 -0.64,0.8 -1.52,0.64 -0.32,-0.08 -0.56,-0.4 -0.24,-0.32 -0.64,-0.56 -0.32,-0.24 -0.72,-0.4 -0.32,-0.16 -0.64,-0.64 -1.2,0.4 -2.4,1.2 -1.12,0.72 -2.32,1.52 -1.2,0.8 -2.48,1.6 -1.28,0.72 -2.64,1.04 -1.44,0.4 -2.16,-0.08 -0.64,-0.56 -1.44,-1.2 -0.56,-0.48 -0.72,-0.56 -0.16,-0.16 -0.32,-1.04 -0.24,-1.76 -0.08,-3.76 0.24,-2.08 0.96,-4.16 2,-6.08 8.16,-8.16 0.72,-0.24 1.44,-0.08 0.8,0.08 1.52,0.4 0.72,0.32 1.36,0.8 0.72,0.48 1.28,0.96 l 1.28,1.04 q 0.4,-1.36 -0.08,-2.88 -0.4,-1.6 -1.28,-2.96 -0.88,-1.44 -2,-2.56 -1.12,-1.12 -2.16,-1.52 -4.08,0 -7.36,1.92 -3.2,1.84 -6.24,4.88 -0.16,0.16 -0.4,0.24 -0.16,0.08 -0.32,0.16 -0.24,0.16 -0.56,0.08 -0.24,-0.08 -0.08,-0.48 0.48,-2.56 1.92,-4.56 1.44,-2.08 3.36,-3.6 1.92,-1.52 4.08,-2.56 2.16,-1.04 4.24,-1.52 0.32,-0.16 0.56,-0.16 0.32,-0.08 0.72,-0.08 0.56,0 1.04,0.32 0.48,0.32 1.12,0.72 0.8,0.4 1.6,0.96 0.8,0.48 1.44,1.2 0.56,0.64 0.96,1.28 0.4,0.64 0.72,1.2 z m -2.72,14.24 q -0.48,-1.04 -1.52,-1.92 -0.96,-0.88 -2.24,-1.28 -1.28,-0.48 -2.8,-0.24 -1.44,0.24 -2.96,1.44 -0.48,1.04 -0.96,2.32 -0.48,1.2 -0.72,2.48 -0.24,1.2 -0.24,2.48 0.08,1.2 0.56,2.24 3.04,-1.04 5.92,-2.4 2.88,-1.36 4.96,-2.4 0.48,-0.48 0.56,-0.8 0.08,-0.32 -0.08,-0.56 -0.08,-0.24 -0.32,-0.56 -0.16,-0.32 -0.16,-0.8 z"
         id="path4187"
         inkscape:connector-curvature="0" />
    </g>
    <text
       xml:space="preserve"
       style="font-style:normal;font-weight:normal;font-size:40px;line-height:125%;font-family:sans-serif;letter-spacing:0px;word-spacing:0px;fill:#000000;fill-opacity:1;stroke:none;stroke-width:1px;stroke-linecap:butt;stroke-linejoin:miter;stroke-opacity:1"
       x="260"
       y="396.64792"
       id="text4163"
       sodipodi:linespacing="125%"><tspan
         sodipodi:role="line"
         id="tspan4165"
         x="260"
         y="396.64792" /></text>
  </g>
</svg>
